<svg width="64" height="65" viewBox="0 0 64 65" fill="none" xmlns="http://www.w3.org/2000/svg">
<rect y="0.984375" width="64" height="64" rx="32" fill="#56A08F"/>
<path d="M43.3327 25.3937C43.3318 25.1362 43.1905 24.8872 42.9693 24.7537L38.3545 22.0434C37.9418 21.801 37.4334 21.8042 37.0027 22.0129C33.8695 23.5313 30.1334 23.5298 27.0013 22.0087C26.5755 21.8018 26.0734 21.7959 25.6625 22.0312L21.0295 24.6842C20.8084 24.8176 20.667 25.0667 20.6661 25.3241C20.6392 33.0472 24.8763 40.3541 31.5662 44.2025C31.8296 44.3539 32.1692 44.3539 32.4326 44.2025C39.1014 40.3662 43.3348 33.0923 43.3327 25.3937Z" stroke="white" stroke-width="1.33333" stroke-miterlimit="10"/>
<path d="M30.3395 27.7046C30.2507 27.919 30.2507 28.1908 30.2507 28.7344V29.845C30.2507 29.8714 30.2507 29.8846 30.2425 29.8928C30.2342 29.901 30.221 29.901 30.1947 29.901H29.084C28.5404 29.901 28.2686 29.901 28.0542 29.9898C27.7683 30.1083 27.5412 30.3354 27.4228 30.6212C27.334 30.8356 27.334 31.1074 27.334 31.651C27.334 32.1946 27.334 32.4664 27.4228 32.6808C27.5412 32.9667 27.7683 33.1938 28.0542 33.3122C28.2686 33.401 28.5404 33.401 29.084 33.401H30.1947C30.221 33.401 30.2342 33.401 30.2425 33.4092C30.2507 33.4174 30.2507 33.4306 30.2507 33.457V34.5677C30.2507 35.1113 30.2507 35.3831 30.3395 35.5975C30.4579 35.8834 30.685 36.1105 30.9709 36.2289C31.1853 36.3177 31.4571 36.3177 32.0007 36.3177C32.5442 36.3177 32.816 36.3177 33.0304 36.2289C33.3163 36.1105 33.5434 35.8834 33.6618 35.5975C33.7507 35.3831 33.7507 35.1113 33.7507 34.5677V33.457C33.7507 33.4306 33.7507 33.4174 33.7589 33.4092C33.7671 33.401 33.7803 33.401 33.8067 33.401H34.9173C35.4609 33.401 35.7327 33.401 35.9471 33.3122C36.233 33.1938 36.4601 32.9667 36.5785 32.6808C36.6673 32.4664 36.6673 32.1946 36.6673 31.651C36.6673 31.1074 36.6673 30.8356 36.5785 30.6212C36.4601 30.3354 36.233 30.1083 35.9471 29.9898C35.7327 29.901 35.4609 29.901 34.9173 29.901H33.8067C33.7803 29.901 33.7671 29.901 33.7589 29.8928C33.7507 29.8846 33.7507 29.8714 33.7507 29.845V28.7344C33.7507 28.1908 33.7507 27.919 33.6618 27.7046C33.5434 27.4187 33.3163 27.1916 33.0304 27.0732C32.816 26.9844 32.5442 26.9844 32.0007 26.9844C31.4571 26.9844 31.1853 26.9844 30.9709 27.0732C30.685 27.1916 30.4579 27.4187 30.3395 27.7046Z" stroke="white" stroke-width="1.33333"/>
</svg>
