<svg width="64" height="65" viewBox="0 0 64 65" fill="none" xmlns="http://www.w3.org/2000/svg">
<rect y="0.984375" width="64.0002" height="64.0002" rx="32.0001" fill="#56A08F"/>
<path d="M23.334 30.9847C23.334 29.1436 27.6673 27.6514 32.0007 27.6514C36.3341 27.6514 40.6674 29.1436 40.6674 30.9847C40.6674 32.9059 38.2068 31.6998 36.831 31.0634C36.7921 31.0454 36.7546 31.0945 36.781 31.1283C39.3473 34.4072 39.9411 37.6676 36.0234 39.6401C36.0098 39.6469 36.0007 39.6587 36.0009 39.6738C36.003 39.8161 36.0235 40.0516 36.0494 40.3489C36.1952 42.0217 36.5116 45.6515 34.6674 45.6515C32.9574 45.6515 33.1761 42.6548 33.2926 41.0583C33.3137 40.7698 33.3314 40.5271 33.3338 40.356C33.3341 40.3339 33.3161 40.3181 33.2941 40.3181H30.7074C30.6853 40.3181 30.6673 40.3339 30.6676 40.356C30.6701 40.5271 30.6878 40.7698 30.7088 41.0583C30.8253 42.6548 31.0441 45.6515 29.334 45.6515C27.4898 45.6515 27.8062 42.0217 27.952 40.3489C27.9779 40.0516 27.9985 39.8161 28.0005 39.6738C28.0007 39.6587 27.9916 39.6469 27.9781 39.6401C24.0603 37.6676 24.6541 34.4072 27.2204 31.1283C27.2469 31.0945 27.2093 31.0454 27.1704 31.0634C25.7946 31.6998 23.334 32.9059 23.334 30.9847Z" stroke="white" stroke-width="1.33334" stroke-linecap="round"/>
<path d="M34.6674 22.9841C34.6674 24.4568 33.4734 25.6508 32.0007 25.6508C30.5279 25.6508 29.334 24.4568 29.334 22.9841C29.334 21.5113 30.5279 20.3174 32.0007 20.3174C33.4734 20.3174 34.6674 21.5113 34.6674 22.9841Z" stroke="white" stroke-width="1.33334"/>
</svg>
