<svg width="64" height="65" viewBox="0 0 64 65" fill="none" xmlns="http://www.w3.org/2000/svg">
<rect y="0.984375" width="64" height="64" rx="32" fill="#56A08F"/>
<path d="M41.3333 40.9844V40.9844C43.1743 40.9844 44.6667 39.492 44.6667 37.651V34.9844M41.3333 40.9844C41.3333 42.0889 40.4379 42.9844 39.3333 42.9844C38.2288 42.9844 37.3333 42.0889 37.3333 40.9844M41.3333 40.9844C41.3333 39.8798 40.4379 38.9844 39.3333 38.9844C38.2288 38.9844 37.3333 39.8798 37.3333 40.9844M42.7222 28.9844L41.401 26.7194C40.7882 25.6689 40.4818 25.1436 40.0126 24.8104C39.873 24.7112 39.7241 24.6257 39.5681 24.555C39.0438 24.3177 38.4357 24.3177 37.2195 24.3177V24.3177M42.7222 28.9844L43.9401 31.0723C44.3013 31.6913 44.4818 32.0009 44.5742 32.3427C44.6667 32.6845 44.6667 33.0429 44.6667 33.7596V34.9844M42.7222 28.9844H40.6667C40.2985 28.9844 40 29.2829 40 29.651V33.651C40 34.3874 40.597 34.9844 41.3333 34.9844H44.6667M20 34.3177V36.9844C20 39.1935 21.7909 40.9844 24 40.9844H26M20 34.3177V26.3177C20 24.4768 21.4924 22.9844 23.3333 22.9844H35.3333C36.2041 22.9844 36.945 23.5409 37.2195 24.3177M20 34.3177H35.3333C36.4379 34.3177 37.3333 33.4223 37.3333 32.3177V24.9844C37.3333 24.7506 37.2932 24.5262 37.2195 24.3177M37.3333 40.9844H30M30 40.9844C30 42.0889 29.1046 42.9844 28 42.9844C26.8954 42.9844 26 42.0889 26 40.9844M30 40.9844C30 39.8798 29.1046 38.9844 28 38.9844C26.8954 38.9844 26 39.8798 26 40.9844" stroke="white" stroke-width="1.33333" stroke-linecap="round"/>
<path d="M28.3834 26.0629C28.3327 26.1854 28.3327 26.3407 28.3327 26.6514V27.286C28.3327 27.3011 28.3327 27.3087 28.328 27.3133C28.3233 27.318 28.3158 27.318 28.3007 27.318H27.666C27.3554 27.318 27.2001 27.318 27.0776 27.3688C26.9142 27.4364 26.7844 27.5662 26.7168 27.7296C26.666 27.8521 26.666 28.0074 26.666 28.318C26.666 28.6287 26.666 28.784 26.7168 28.9065C26.7844 29.0698 26.9142 29.1996 27.0776 29.2673C27.2001 29.318 27.3554 29.318 27.666 29.318H28.3007C28.3158 29.318 28.3233 29.318 28.328 29.3227C28.3327 29.3274 28.3327 29.3349 28.3327 29.35V29.9847C28.3327 30.2953 28.3327 30.4506 28.3834 30.5732C28.4511 30.7365 28.5809 30.8663 28.7442 30.934C28.8667 30.9847 29.0221 30.9847 29.3327 30.9847C29.6433 30.9847 29.7986 30.9847 29.9211 30.934C30.0845 30.8663 30.2143 30.7365 30.2819 30.5732C30.3327 30.4506 30.3327 30.2953 30.3327 29.9847V29.35C30.3327 29.3349 30.3327 29.3274 30.3374 29.3227C30.3421 29.318 30.3496 29.318 30.3647 29.318H30.9993C31.31 29.318 31.4653 29.318 31.5878 29.2673C31.7512 29.1996 31.8809 29.0698 31.9486 28.9065C31.9993 28.784 31.9993 28.6287 31.9993 28.318C31.9993 28.0074 31.9993 27.8521 31.9486 27.7296C31.8809 27.5662 31.7512 27.4364 31.5878 27.3688C31.4653 27.318 31.31 27.318 30.9993 27.318H30.3647C30.3496 27.318 30.3421 27.318 30.3374 27.3133C30.3327 27.3087 30.3327 27.3011 30.3327 27.286V26.6514C30.3327 26.3407 30.3327 26.1854 30.2819 26.0629C30.2143 25.8996 30.0845 25.7698 29.9211 25.7021C29.7986 25.6514 29.6433 25.6514 29.3327 25.6514C29.0221 25.6514 28.8667 25.6514 28.7442 25.7021C28.5809 25.7698 28.4511 25.8996 28.3834 26.0629Z" stroke="white" stroke-width="1.33333"/>
</svg>
