<svg width="64" height="65" viewBox="0 0 64 65" fill="none" xmlns="http://www.w3.org/2000/svg">
<rect y="0.984375" width="64" height="64" rx="32" fill="#56A08F"/>
<path d="M21.8785 40.3176L24.6654 37.5306C25.1861 37.0099 25.137 36.1526 24.9756 35.4342C24.788 34.5992 25.0386 33.6635 25.7168 32.9854C26.7415 31.9606 28.3544 31.912 29.3192 32.8768C29.6881 33.2457 29.9088 33.7092 29.9835 34.1985C30.0103 34.374 30.1513 34.515 30.3268 34.5418C30.816 34.6165 31.2796 34.8372 31.6485 35.2061C32.6133 36.1709 32.5647 37.7837 31.5399 38.8085C30.8618 39.4866 29.9261 39.7373 29.0911 39.5497C28.3727 39.3883 27.5154 39.3392 26.9947 39.8599L24.1395 42.715" stroke="white" stroke-width="1.33333" stroke-linecap="round"/>
<path d="M39.3333 22.8639L36.5384 25.6589C36.0177 26.1796 35.1603 26.1305 34.4417 25.9695C33.6062 25.7823 32.6695 26.0338 31.9903 26.7131C30.964 27.7394 30.9141 29.3535 31.8789 30.3183C32.2477 30.6871 32.7113 30.9077 33.2008 30.9821C33.3765 31.0088 33.5177 31.15 33.5444 31.3257C33.6188 31.8152 33.8394 32.2788 34.2081 32.6476C35.1729 33.6124 36.7871 33.5625 37.8134 32.5362C38.4926 31.857 38.7442 30.9203 38.557 30.0848C38.396 29.3662 38.3469 28.5088 38.8676 27.9881L41.7203 25.1355" stroke="white" stroke-width="1.33333" stroke-linecap="round"/>
<path d="M27.3327 28.318L26.666 27.6514" stroke="white" stroke-width="1.33333" stroke-linecap="round"/>
<path d="M29.334 27.651L29.334 26.9844" stroke="white" stroke-width="1.33333" stroke-linecap="round"/>
<path d="M26.6667 30.3174L26 30.3174" stroke="white" stroke-width="1.33333" stroke-linecap="round"/>
<path d="M36.6654 37.6507L37.332 38.3174" stroke="white" stroke-width="1.33333" stroke-linecap="round"/>
<path d="M34.666 38.3177L34.666 38.9844" stroke="white" stroke-width="1.33333" stroke-linecap="round"/>
<path d="M37.3314 35.6514L37.998 35.6514" stroke="white" stroke-width="1.33333" stroke-linecap="round"/>
</svg>
