<svg width="64" height="65" viewBox="0 0 64 65" fill="none" xmlns="http://www.w3.org/2000/svg">
<rect y="0.984375" width="64" height="64" rx="32" fill="#56A08F"/>
<path d="M25.334 43.7847C25.334 42.6065 26.2891 41.6514 27.4673 41.6514H36.534C37.7122 41.6514 38.6673 42.6065 38.6673 43.7847V43.7847C38.6673 44.0793 38.4285 44.318 38.134 44.318H25.8673C25.5728 44.318 25.334 44.0793 25.334 43.7847V43.7847Z" stroke="white" stroke-width="1.33333"/>
<path d="M27.9321 36.984C27.9321 36.984 29.7495 38.3462 30.8504 38.5727C31.8314 38.7746 32.8483 38.7146 33.7988 38.3989C34.7493 38.0832 35.6 37.5229 36.2653 36.7742C36.9306 36.0255 37.3872 35.1149 37.589 34.1339C37.7909 33.1529 37.7309 32.136 37.4152 31.1855C37.264 30.7302 37.0566 30.2978 36.7993 29.8977L36.667 29.6507M25.0723 36.984C25.0723 36.984 26.0429 38.3923 26.6861 38.964C27.7358 39.8968 29.0126 40.5369 30.3881 40.8199C31.7636 41.1029 33.1893 41.0189 34.522 40.5762C35.8547 40.1335 37.0474 39.3479 37.9802 38.2982C38.9131 37.2485 39.5532 35.9717 39.8362 34.5963C40.1192 33.2208 40.0351 31.795 39.5925 30.4623C39.3602 29.763 39.0335 29.1022 38.6237 28.4973L38.5255 28.391M36.667 29.6507C37.51 29.6507 38.2312 29.1291 38.5255 28.391M36.667 29.6507C35.9625 29.6507 35.3431 29.2864 34.9868 28.736M38.5255 28.391C38.6168 28.162 38.667 27.9122 38.667 27.6507C38.667 27.1354 38.4721 26.6657 38.1521 26.3111M38.7734 23.7814L38.667 23.8642M38.7734 23.7814C39.0306 24.1172 39.4728 24.1237 39.7844 23.8726C40.2494 23.4978 40.296 22.8295 39.9415 22.3668L39.6213 21.9487C39.2668 21.4861 38.6094 21.357 38.1265 21.7085C37.8054 21.9421 37.6987 22.3786 37.9513 22.7084M38.7734 23.7814L38.3623 23.2449L37.9513 22.7084M37.9513 22.7084L37.8466 22.7933M37.8466 22.7933L38.667 23.8642M37.8466 22.7933C37.3639 22.1632 37.1225 21.8482 36.7934 21.7487C36.683 21.7153 36.568 21.7001 36.4527 21.7036C36.1091 21.7139 35.794 21.9553 35.1639 22.438L28.5064 27.5382C28.3274 27.6754 28.2378 27.744 28.1735 27.8146C27.8739 28.1439 27.8102 28.6245 28.0138 29.0204C28.0575 29.1054 28.1261 29.1949 28.2632 29.3739M38.667 23.8642C38.986 24.2806 39.1455 24.4888 39.1986 24.7066C39.262 24.9659 39.2257 25.2396 39.097 25.4735C38.989 25.67 38.7808 25.8294 38.3644 26.1484L38.1521 26.3111M28.2632 29.3739L29.9256 31.5439M28.2632 29.3739L26.8984 30.4204C26.5784 30.6656 26.4184 30.7882 26.3281 30.9345C26.1885 31.1609 26.152 31.4361 26.228 31.691C26.2771 31.8558 26.3997 32.0158 26.6449 32.3358C26.8901 32.6558 27.0127 32.8158 27.159 32.9061C27.3854 33.0457 27.6606 33.0821 27.9155 33.0062C28.0802 32.9571 28.2402 32.8345 28.5602 32.5893L29.9256 31.5439M29.9256 31.5439C30.2107 31.9161 30.7436 31.9867 31.1158 31.7015L34.9868 28.736M34.9868 28.736C34.7845 28.4234 34.667 28.0508 34.667 27.6507C34.667 26.5461 35.5624 25.6507 36.667 25.6507C37.2563 25.6507 37.7861 25.9056 38.1521 26.3111" stroke="white" stroke-width="1.33333"/>
<path d="M24.666 36.9844H29.9993" stroke="white" stroke-width="1.33333" stroke-linecap="round"/>
</svg>
