<svg width="48" height="49" viewBox="0 0 48 49" fill="none" xmlns="http://www.w3.org/2000/svg">
<path d="M23.8977 29.3906C16.9977 29.3906 11.1758 30.5181 11.1758 34.8696C11.1758 39.2229 17.0353 40.3108 23.8977 40.3108C30.7976 40.3108 36.6195 39.1833 36.6195 34.8318C36.6195 30.4785 30.76 29.3906 23.8977 29.3906Z" fill="#56A08F"/>
<path opacity="0.4" d="M23.899 25.2446C28.5713 25.2446 32.3176 21.4767 32.3176 16.7776C32.3176 12.0767 28.5713 8.31055 23.899 8.31055C19.2268 8.31055 15.4805 12.0767 15.4805 16.7776C15.4805 21.4767 19.2268 25.2446 23.899 25.2446Z" fill="#56A08F"/>
<path opacity="0.4" d="M42.1771 18.75C43.3859 13.995 39.8419 9.72461 35.3291 9.72461C34.8384 9.72461 34.3692 9.77864 33.9108 9.8705C33.8499 9.88491 33.7818 9.91553 33.746 9.96956C33.7048 10.038 33.7353 10.1299 33.78 10.1893C35.1357 12.1021 35.9147 14.4309 35.9147 16.9309C35.9147 19.3263 35.2001 21.5597 33.9466 23.4131C33.8176 23.604 33.9322 23.8615 34.1597 23.9012C34.4749 23.957 34.7972 23.9858 35.1267 23.9948C38.4128 24.0813 41.3623 21.9542 42.1771 18.75Z" fill="#56A08F"/>
<path d="M45.6188 29.9435C45.0171 28.6539 43.5648 27.7695 41.3567 27.3355C40.3145 27.0797 37.4939 26.7195 34.8704 26.7681C34.831 26.7735 34.8095 26.8005 34.8059 26.8186C34.8006 26.8438 34.8113 26.887 34.8632 26.914C36.0756 27.5174 40.7622 30.1416 40.173 35.6764C40.1479 35.916 40.3395 36.1231 40.5777 36.0871C41.731 35.9214 44.6983 35.2802 45.6188 33.2827C46.1274 32.2273 46.1274 31.0007 45.6188 29.9435Z" fill="#56A08F"/>
<path opacity="0.4" d="M14.0902 9.8705C13.6335 9.77684 13.1625 9.72461 12.6718 9.72461C8.159 9.72461 4.615 13.995 5.82558 18.75C6.63861 21.9542 9.58807 24.0813 12.8742 23.9948C13.2037 23.9858 13.5278 23.9552 13.8412 23.9012C14.0687 23.8615 14.1833 23.604 14.0543 23.4131C12.8008 21.5579 12.0862 19.3263 12.0862 16.9309C12.0862 14.4291 12.867 12.1003 14.2227 10.1893C14.2657 10.1299 14.2979 10.038 14.2549 9.96956C14.2191 9.91373 14.1528 9.88491 14.0902 9.8705Z" fill="#56A08F"/>
<path d="M6.64311 27.3359C4.43505 27.77 2.9845 28.6544 2.38278 29.944C1.87241 31.0012 1.87241 32.2278 2.38278 33.285C3.30326 35.2807 6.27062 35.9236 7.4239 36.0876C7.66208 36.1236 7.8519 35.9182 7.82683 35.6769C7.23766 30.1439 11.9242 27.5197 13.1384 26.9163C13.1885 26.8875 13.1992 26.846 13.1939 26.819C13.1903 26.801 13.1706 26.774 13.1312 26.7704C10.5059 26.72 7.68715 27.0802 6.64311 27.3359Z" fill="#56A08F"/>
</svg>
