<svg width="64" height="65" viewBox="0 0 64 65" fill="none" xmlns="http://www.w3.org/2000/svg">
<path opacity="0.4" d="M38.4461 15.5424C37.1767 15.3078 36.0108 16.118 35.7691 17.3571C35.5274 18.5963 36.3401 19.8061 37.575 20.0486C41.293 20.7734 44.1639 23.6515 44.8916 27.3822V27.3849C45.0987 28.4588 46.0442 29.2396 47.133 29.2396C47.2791 29.2396 47.4251 29.2263 47.5739 29.1996C48.8088 28.9518 49.6214 27.7446 49.3798 26.5028C48.2936 20.9307 44.0046 16.6269 38.4461 15.5424Z" fill="#56A08F"/>
<path opacity="0.4" d="M38.281 6.25747C37.6861 6.1722 37.0885 6.34808 36.6132 6.72649C36.1245 7.11022 35.8191 7.66451 35.7527 8.28541C35.6119 9.54055 36.5176 10.6758 37.7711 10.817C46.4155 11.7817 53.1345 18.5157 54.1065 27.1871C54.2366 28.349 55.2113 29.2257 56.3745 29.2257C56.4621 29.2257 56.5471 29.2204 56.6348 29.2097C57.2429 29.1431 57.7847 28.842 58.1671 28.3623C58.5469 27.8826 58.7195 27.2857 58.6505 26.6755C57.4395 15.8562 49.0659 7.45932 38.281 6.25747Z" fill="#56A08F"/>
<path fill-rule="evenodd" clip-rule="evenodd" d="M29.4167 35.4973C40.0542 46.1319 42.4674 33.8289 49.2404 40.5971C55.7701 47.125 59.523 48.4328 51.25 56.7036C50.2137 57.5364 43.6297 67.5556 20.491 44.4234C-2.65058 21.2883 7.36292 14.6975 8.19595 13.6615C16.489 5.36789 17.7743 9.14265 24.304 15.6705C31.077 22.4416 18.7791 24.8627 29.4167 35.4973Z" fill="#56A08F"/>
</svg>
