<svg width="54" height="49" viewBox="0 0 54 49" fill="none" xmlns="http://www.w3.org/2000/svg">
<path opacity="0.4" d="M53.6654 35.4136C53.6654 42.8536 47.692 48.8802 40.252 48.9069H40.2254H13.7987C6.38537 48.9069 0.332031 42.9069 0.332031 35.4669V35.4402C0.332031 35.4402 0.348031 23.6376 0.369365 17.7016C0.372031 16.5869 1.65203 15.9629 2.52403 16.6562C8.86003 21.6829 20.1907 30.8482 20.332 30.9682C22.2254 32.4856 24.6254 33.3416 27.0787 33.3416C29.532 33.3416 31.932 32.4856 33.8254 30.9389C33.9667 30.8456 45.044 21.9549 51.476 16.8456C52.3507 16.1496 53.636 16.7736 53.6387 17.8856C53.6654 23.7762 53.6654 35.4136 53.6654 35.4136Z" fill="#56A08F"/>
<path d="M52.2684 8.03496C49.959 3.68296 45.415 0.904297 40.4124 0.904297H13.799C8.79637 0.904297 4.25237 3.68296 1.94304 8.03496C1.42571 9.0083 1.67104 10.2216 2.53237 10.9096L22.3324 26.747C23.719 27.867 25.399 28.4243 27.079 28.4243C27.0897 28.4243 27.0977 28.4243 27.1057 28.4243C27.1137 28.4243 27.1244 28.4243 27.1324 28.4243C28.8124 28.4243 30.4924 27.867 31.879 26.747L51.679 10.9096C52.5404 10.2216 52.7857 9.0083 52.2684 8.03496Z" fill="#56A08F"/>
</svg>
