<svg width="100" height="101" viewBox="0 0 100 101" fill="none" xmlns="http://www.w3.org/2000/svg">
<path opacity="0.5" d="M91.6673 50.2073C91.6673 73.1611 72.9656 91.8538 50.0006 91.8538C27.0357 91.8538 8.33398 73.1611 8.33398 50.2073C8.33398 27.2132 27.0357 8.52051 50.0006 8.52051C72.9656 8.52051 91.6673 27.2132 91.6673 50.2073Z" fill="white"/>
<path d="M66.6667 50.2074C66.6667 51.2605 66.3352 52.3176 65.6723 53.1641C65.5481 53.3301 64.968 54.0146 64.5123 54.4602L64.2637 54.7032C60.7836 58.3929 52.1248 63.9417 47.7332 65.7198C47.7332 65.7603 45.1231 66.8174 43.8802 66.8538H43.7145C41.8087 66.8538 40.0272 65.8048 39.1158 64.1037C38.6186 63.1681 38.1629 60.4545 38.1214 60.418C37.7486 57.9839 37.5 54.2576 37.5 50.1669C37.5 45.8777 37.7486 41.9855 38.2043 39.5958C38.2043 39.5553 38.66 37.3682 38.95 36.6392C39.4058 35.5902 40.2344 34.6951 41.2701 34.128C42.0987 33.7271 42.9688 33.5205 43.8802 33.5205C44.8331 33.5651 46.6146 34.1685 47.3189 34.4521C51.959 36.2342 60.825 42.0665 64.2223 45.6307C64.8023 46.1977 65.4238 46.8903 65.5895 47.0483C66.2938 47.9393 66.6667 49.0329 66.6667 50.2074Z" fill="white"/>
</svg>
