<svg width="38" height="54" viewBox="0 0 38 54" fill="none" xmlns="http://www.w3.org/2000/svg">
<path fill-rule="evenodd" clip-rule="evenodd" d="M9.75164 2.73439C15.5779 -0.65094 22.7394 -0.59177 28.511 2.88938C34.2259 6.44143 37.6992 12.7808 37.6669 19.6002C37.5339 26.3748 33.8094 32.743 29.1539 37.6659C26.4669 40.5201 23.461 43.0439 20.1976 45.1858C19.8615 45.3801 19.4933 45.5102 19.1113 45.5697C18.7436 45.554 18.3855 45.4454 18.0693 45.2535C13.0871 42.0352 8.71621 37.9271 5.16687 33.1269C2.19688 29.12 0.509543 24.279 0.333987 19.2614C0.330129 12.429 3.92536 6.11971 9.75164 2.73439ZM13.1184 22.0891C14.0984 24.5052 16.4118 26.0812 18.9782 26.0812C20.6596 26.0933 22.2758 25.4199 23.4668 24.2109C24.6578 23.002 25.3246 21.358 25.3186 19.6453C25.3276 17.0311 23.7885 14.6692 21.42 13.6624C19.0515 12.6556 16.3207 13.2026 14.5028 15.0479C12.6849 16.8932 12.1383 19.6729 13.1184 22.0891Z" fill="#56A08F"/>
<ellipse opacity="0.4" cx="19.0013" cy="50.903" rx="13.3333" ry="2.66667" fill="#56A08F"/>
</svg>
