<svg width="48" height="49" viewBox="0 0 48 49" fill="none" xmlns="http://www.w3.org/2000/svg">
<path opacity="0.4" d="M24.173 44.3105C23.9253 44.3105 23.6777 44.2537 23.4542 44.138L16.252 40.4098C14.2083 39.3507 12.6096 38.1623 11.3613 36.7777C8.62898 33.7496 7.1088 29.8625 7.08464 25.8304L7.00008 12.5591C6.99001 11.0274 7.97862 9.6526 9.45651 9.13485L22.681 4.52412C23.4663 4.24367 24.3421 4.23975 25.1415 4.51039L38.4163 8.96423C39.9022 9.46041 40.907 10.8254 40.915 12.3551L40.9996 25.6362C41.0258 29.6625 39.5579 33.5653 36.8679 36.6267C35.6337 38.0309 34.0491 39.237 32.0255 40.3156L24.8878 44.1282C24.6663 44.2478 24.4206 44.3086 24.173 44.3105Z" fill="#56A08F"/>
<path d="M22.6377 28.9524C22.2512 28.9543 21.8646 28.8151 21.5666 28.5288L17.7329 24.8417C17.141 24.2691 17.1349 23.3395 17.7208 22.7629C18.3068 22.1843 19.2632 22.1785 19.8571 22.7492L22.6156 25.4007L29.3507 18.7601C29.9386 18.1816 30.895 18.1757 31.487 18.7464C32.0809 19.3191 32.087 20.2506 31.5011 20.8253L23.7029 28.515C23.4089 28.8053 23.0243 28.9504 22.6377 28.9524Z" fill="#56A08F"/>
</svg>
