<svg width="48" height="49" viewBox="0 0 48 49" fill="none" xmlns="http://www.w3.org/2000/svg">
<path opacity="0.4" fill-rule="evenodd" clip-rule="evenodd" d="M35.4732 12.4027C38.8878 15.0383 41.7951 18.8996 43.8829 23.7287C44.039 24.0953 44.039 24.5239 43.8829 24.873C39.7073 34.5312 32.2732 40.3105 24 40.3105H23.9805C15.7268 40.3105 8.29268 34.5312 4.11707 24.873C3.96098 24.5239 3.96098 24.0953 4.11707 23.7287C8.29268 14.0686 15.7268 8.31055 23.9805 8.31055H24C28.1366 8.31055 32.0585 9.7457 35.4732 12.4027ZM16.1953 24.3103C16.1953 28.577 19.688 32.0485 24.0002 32.0485C28.2929 32.0485 31.7856 28.577 31.7856 24.3103C31.7856 20.0243 28.2929 16.5527 24.0002 16.5527C19.688 16.5527 16.1953 20.0243 16.1953 24.3103Z" fill="#56A08F"/>
<path d="M28.8616 24.3036C28.8616 26.9605 26.6762 29.1327 24.003 29.1327C21.3104 29.1327 19.125 26.9605 19.125 24.3036C19.125 23.9739 19.164 23.6655 19.2226 23.3552H19.3201C21.486 23.3552 23.2421 21.6485 23.3201 19.5133C23.5348 19.4764 23.7689 19.4551 24.003 19.4551C26.6762 19.4551 28.8616 21.6272 28.8616 24.3036Z" fill="#56A08F"/>
</svg>
