<svg width="169" height="27" viewBox="0 0 169 27" fill="none" xmlns="http://www.w3.org/2000/svg">
<path d="M23.6173 26.4437V19.6299H16.1972C14.1793 19.6299 12.3101 20.6892 11.2767 22.4186L8.87109 26.4437H23.6173Z" fill="#63D2F9"/>
<path d="M0 0.267578V7.08138H19.5439L23.6161 0.267578H0Z" fill="#4E5EE4"/>
<path d="M9.35347 10.9141L0.0214844 26.4415H7.97212L19.1315 7.86523H14.7411C12.5328 7.86523 10.4869 9.02301 9.35347 10.9141Z" fill="#63B0F9"/>
<path d="M40.5335 19.9C36.5356 19.9 33.5938 16.994 33.5938 13.0942C33.5938 9.23199 36.5545 6.28843 40.5524 6.28843C44.5503 6.28843 47.511 9.26949 47.511 13.0942C47.511 16.9565 44.5315 19.9 40.5335 19.9ZM40.5524 17.5189C43.0794 17.5189 44.8898 15.6441 44.8898 13.0942C44.8898 10.5819 43.0794 8.66953 40.5524 8.66953C38.0066 8.66953 36.1962 10.5819 36.1962 13.0942C36.1962 15.6441 38.0066 17.5189 40.5524 17.5189ZM50.1882 23.9685V9.79445H52.602V11.0506H52.7341C52.9981 10.6381 53.9033 9.55072 55.7136 9.55072C58.4858 9.55072 60.3905 11.6131 60.3905 14.6879C60.3905 17.7627 58.5046 19.9 55.7891 19.9C54.0353 19.9 53.0924 18.9251 52.7718 18.3814H52.6398V23.9685H50.1882ZM55.2422 17.6877C56.8263 17.6877 57.9012 16.469 57.9012 14.7254C57.9012 12.9255 56.8263 11.7631 55.2233 11.7631C53.6015 11.7631 52.5832 13.0567 52.5832 14.7254C52.5832 16.5628 53.7147 17.6877 55.2422 17.6877ZM67.405 19.9C64.482 19.9 62.4076 17.7252 62.4076 14.7816C62.4076 11.6693 64.5008 9.55072 67.405 9.55072C70.592 9.55072 72.327 11.8943 72.327 14.6691V15.4378H64.7837C64.8591 16.9377 65.8963 17.9502 67.4804 17.9502C68.6873 17.9502 69.6114 17.3877 69.9508 16.5815H72.2327C71.7423 18.5876 69.9697 19.9 67.405 19.9ZM64.8214 13.7129H69.9885C69.8754 12.3818 68.8382 11.5006 67.405 11.5006C66.0283 11.5006 64.9723 12.4755 64.8214 13.7129ZM74.9664 19.6563V9.79445H77.3048V10.9944H77.4368C77.8328 10.2632 78.8134 9.55072 80.2278 9.55072C82.4531 9.55072 83.8109 11.1069 83.8109 13.2067V19.6563H81.3593V13.8442C81.3593 12.6443 80.5861 11.8381 79.4546 11.8381C78.2666 11.8381 77.4179 12.7755 77.4179 14.0129V19.6563H74.9664ZM86.2429 19.6563V17.4252L93.1072 8.81952V8.68827H86.488V6.53217H96.2377V8.74452L89.3733 17.3502V17.5002H96.2754V19.6563H86.2429ZM102.913 19.9C99.9897 19.9 97.9153 17.7252 97.9153 14.7816C97.9153 11.6693 100.009 9.55072 102.913 9.55072C106.1 9.55072 107.835 11.8943 107.835 14.6691V15.4378H100.291C100.367 16.9377 101.404 17.9502 102.988 17.9502C104.195 17.9502 105.119 17.3877 105.459 16.5815H107.74C107.25 18.5876 105.477 19.9 102.913 19.9ZM100.329 13.7129H105.496C105.383 12.3818 104.346 11.5006 102.913 11.5006C101.536 11.5006 100.48 12.4755 100.329 13.7129ZM110.474 23.9685V9.79445H112.888V11.0506H113.02C113.284 10.6381 114.189 9.55072 116 9.55072C118.772 9.55072 120.676 11.6131 120.676 14.6879C120.676 17.7627 118.791 19.9 116.075 19.9C114.321 19.9 113.378 18.9251 113.058 18.3814H112.926V23.9685H110.474ZM115.528 17.6877C117.112 17.6877 118.187 16.469 118.187 14.7254C118.187 12.9255 117.112 11.7631 115.509 11.7631C113.887 11.7631 112.869 13.0567 112.869 14.7254C112.869 16.5628 114.001 17.6877 115.528 17.6877ZM123.316 23.9685V9.79445H125.73V11.0506H125.862C126.126 10.6381 127.031 9.55072 128.841 9.55072C131.613 9.55072 133.518 11.6131 133.518 14.6879C133.518 17.7627 131.632 19.9 128.917 19.9C127.163 19.9 126.22 18.9251 125.899 18.3814H125.767V23.9685H123.316ZM128.37 17.6877C129.954 17.6877 131.029 16.469 131.029 14.7254C131.029 12.9255 129.954 11.7631 128.351 11.7631C126.729 11.7631 125.711 13.0567 125.711 14.7254C125.711 16.5628 126.842 17.6877 128.37 17.6877ZM140.533 19.9C137.61 19.9 135.535 17.7252 135.535 14.7816C135.535 11.6693 137.628 9.55072 140.533 9.55072C143.72 9.55072 145.455 11.8943 145.455 14.6691V15.4378H137.911C137.987 16.9377 139.024 17.9502 140.608 17.9502C141.815 17.9502 142.739 17.3877 143.078 16.5815H145.36C144.87 18.5876 143.097 19.9 140.533 19.9ZM137.949 13.7129H143.116C143.003 12.3818 141.966 11.5006 140.533 11.5006C139.156 11.5006 138.1 12.4755 137.949 13.7129ZM150.508 19.6563C148.773 19.6563 147.792 18.6251 147.792 16.8815V5.59473H150.244V16.6565C150.244 17.219 150.527 17.5189 151.036 17.5189H151.432V19.6563H150.508ZM155.014 8.48204C154.128 8.48204 153.506 7.93832 153.506 7.05713C153.506 6.21344 154.128 5.65097 155.014 5.65097C155.901 5.65097 156.523 6.21344 156.523 7.05713C156.523 7.93832 155.901 8.48204 155.014 8.48204ZM153.788 19.6563V9.79445H156.24V19.6563H153.788ZM159.219 19.6563V9.79445H161.557V10.9944H161.689C162.085 10.2632 163.066 9.55072 164.48 9.55072C166.706 9.55072 168.063 11.1069 168.063 13.2067V19.6563H165.612V13.8442C165.612 12.6443 164.839 11.8381 163.707 11.8381C162.519 11.8381 161.67 12.7755 161.67 14.0129V19.6563H159.219Z" fill="#282846"/>
</svg>
