<svg width="169" height="23" viewBox="0 0 169 23" fill="none" xmlns="http://www.w3.org/2000/svg">
<path d="M73.3423 14.6458H84.4475L78.5755 5.19847L67.7983 22.2796H62.8934L76.0021 1.76151C76.572 0.932493 77.5219 0.431641 78.5755 0.431641C79.5944 0.431641 80.5443 0.91523 81.097 1.72697L94.2574 22.2796H89.3525L87.0382 18.4627H75.7948L73.3423 14.6458ZM124.291 18.4627V0.638894H120.129V20.2071C120.129 20.7425 120.336 21.2606 120.734 21.6579C121.131 22.0551 121.666 22.2796 122.253 22.2796H141.234L143.687 18.4627H124.291ZM55.4324 15.2675C59.4739 15.2675 62.7553 12.0033 62.7553 7.96185C62.7553 3.92041 59.4739 0.638894 55.4324 0.638894H37.2237V22.2796H41.3843V4.45582H55.1561C57.0905 4.45582 58.6448 6.02748 58.6448 7.96185C58.6448 9.89622 57.0905 11.4679 55.1561 11.4679L43.4223 11.4506L55.8469 22.2796H61.8918L53.5327 15.2675H55.4324ZM11.6111 22.2796C5.63703 22.2796 0.789062 17.4437 0.789062 11.4679C0.789062 5.49208 5.63703 0.638894 11.6111 0.638894H24.1894C30.1651 0.638894 35.0096 5.49208 35.0096 11.4679C35.0096 17.4437 30.1651 22.2796 24.1894 22.2796H11.6111ZM23.9096 18.4627C27.7801 18.4627 30.9147 15.3366 30.9147 11.4679C30.9147 7.59916 27.7801 4.45582 23.9096 4.45582H11.8891C8.02041 4.45582 4.88395 7.59916 4.88395 11.4679C4.88395 15.3366 8.02041 18.4627 11.8891 18.4627H23.9096ZM102.945 22.2796C96.9689 22.2796 92.1158 17.4437 92.1158 11.4679C92.1158 5.49208 96.9689 0.638894 102.945 0.638894H117.884L115.449 4.45582H103.221C99.3522 4.45582 96.209 7.59916 96.209 11.4679C96.209 15.3366 99.3522 18.4627 103.221 18.4627H118.229L115.777 22.2796H102.945ZM153.842 18.4627C150.647 18.4627 147.935 16.3211 147.106 13.3677H164.895L167.348 9.55079H147.106C147.935 6.6147 150.647 4.45582 153.842 4.45582H166.052L168.522 0.638894H153.566C147.59 0.638894 142.737 5.49208 142.737 11.4679C142.737 17.4437 147.59 22.2796 153.566 22.2796H166.398L168.85 18.4627H153.842Z" fill="#EA1B22"/>
</svg>
