<svg width="169" height="35" viewBox="0 0 169 35" fill="none" xmlns="http://www.w3.org/2000/svg">
<path d="M167.202 12.0692C168.52 13.1352 167.125 14.8213 165.962 13.9686C164.528 13.0577 161.272 12.6314 160.865 14.6469C160.341 17.8256 168.772 16.0037 168.637 21.1591C168.501 26.0822 161.369 26.1984 158.694 23.9889C158.054 23.4657 158.074 22.6128 158.423 22.0894C158.926 21.5856 159.489 21.4112 160.147 21.9538C161.737 23.0392 165.826 23.8532 166.117 21.1011C165.865 18.2325 157.802 19.9575 158.403 14.4532C158.849 10.6931 164.528 10.0147 167.202 12.0692ZM154.487 12.8251V19.8412C154.487 27.0899 142.8 27.0899 142.8 19.8412V12.8251C142.8 11.0808 145.34 11.0032 145.34 12.8251V19.8412C145.34 23.6594 151.948 23.892 151.948 19.8412V12.8251C151.948 11.1001 154.487 10.9644 154.487 12.8251ZM74.4596 11.0614C77.8513 11.2357 81.3981 13.5809 81.3981 18.1745C81.3981 22.7678 77.8513 25.1518 74.4596 25.1518C70.874 25.3069 67.1528 22.9229 67.1528 18.1745C67.1528 13.4065 70.874 11.0614 74.4596 11.0614ZM91.535 11.5458C96.4579 11.5458 97.4656 18.1357 93.3569 19.783L95.9345 22.9229C96.9423 24.4154 94.9267 25.8495 93.7638 24.3766L90.8373 20.1901H87.7944V23.6982C87.7944 25.3843 85.2166 25.4426 85.2166 23.737V12.7282C85.2166 12.0498 85.74 11.5458 86.3796 11.5458H91.535ZM51.3758 11.3715C51.9378 11.3715 52.2673 11.701 52.5968 12.0692L56.8607 17.8256L61.2797 11.8559C61.9192 11.0614 63.4891 11.3715 63.4891 12.7088V23.6207C63.4891 24.4734 62.9464 24.958 62.3262 24.958C61.6285 24.958 61.0858 24.4734 61.0858 23.6207V16.4495L57.8686 20.5197C57.1708 21.3724 56.2987 21.3724 55.659 20.5197L52.7712 16.4495V23.6207C52.7712 24.4734 52.0735 24.958 51.3758 24.958C50.7556 24.958 50.2129 24.4734 50.2129 23.6207V12.7088C50.2129 11.701 51.0657 11.3715 51.3758 11.3715ZM105.587 11.3715C108.107 11.3715 110.374 13.0577 110.374 16.2944C110.374 19.3567 108.107 21.0623 105.587 21.0623H102.35V23.6207C102.35 24.4734 101.808 24.958 101.11 24.958C100.47 24.958 99.7919 24.4734 99.7919 23.6207V12.7088C99.7919 12.0692 100.296 11.3715 101.11 11.3715H105.587ZM124.097 11.5458C124.775 11.5458 125.298 12.0498 125.298 12.7476V23.7564C125.298 24.4346 124.775 24.958 124.097 24.958C123.399 24.958 122.779 24.4346 122.779 23.7564V19.5117H116.461V23.7564C116.461 24.4346 115.957 24.958 115.278 24.958C114.406 24.958 113.902 24.4346 113.902 23.7564V12.7476C113.902 12.0498 114.406 11.5458 115.278 11.5458C115.957 11.5458 116.461 12.0498 116.461 12.7476V16.9728H122.779V12.7476C122.779 12.0498 123.399 11.5458 124.097 11.5458ZM137.587 11.5458C139.37 11.5458 139.331 14.0655 137.587 14.0655H132.005V16.9728H136.889C138.614 16.9728 138.614 19.5117 136.889 19.5117H132.005V22.4189H137.916C139.68 22.4189 139.815 24.958 137.916 24.958H130.629C129.95 24.958 129.427 24.4346 129.427 23.7564V12.7476C129.427 12.0498 129.95 11.5458 130.629 11.5458H137.587ZM74.2464 13.5809C72.0757 13.5809 69.7112 15.1122 69.7112 18.1745C69.7112 21.2173 72.0757 22.7678 74.2464 22.7678C76.4753 22.7678 78.8592 21.2173 78.8592 18.1745C78.8592 15.1122 76.4753 13.5809 74.2464 13.5809ZM105.587 13.8136H102.35V18.6396H105.587C106.885 18.6396 107.913 17.4961 107.913 16.2944C107.913 14.9377 106.885 13.8136 105.587 13.8136ZM91.535 13.891H87.7944V17.9612H91.535C94.0545 17.9612 94.2096 13.891 91.535 13.891Z" fill="#3DB5E6"/>
<path d="M34.8381 21.7185C32.9485 29.31 26.035 34.711 17.8924 34.711C9.71299 34.711 2.85899 28.9903 1.04688 21.3675C3.22585 21.3675 5.26287 21.3774 6.20857 21.3774C6.65468 21.3774 6.74132 21.3852 6.76713 21.3833C7.47871 21.3483 8.37095 21.1134 8.96453 19.67L11.2265 13.7529L16.2499 25.848C16.7015 26.8121 17.4555 26.7438 17.9053 26.7438H17.9477C18.8252 26.7438 19.2068 26.4363 19.5405 25.8003L25.2147 13.8436L27.1503 19.2322L27.2683 19.4931C27.6775 20.3909 27.9719 21.2777 28.9847 21.3936C29.1935 21.4175 31.618 21.3751 34.8864 21.3751C34.8864 21.3751 34.8864 21.3961 34.8381 21.7185Z" fill="#3DB5E6"/>
<path d="M35.3937 17.2479C35.3937 17.3383 35.3937 17.5654 35.3918 17.5654H35.3881H30.1712L27.1276 9.06314C26.8566 8.43082 26.4492 7.48289 25.262 7.48289C24.5357 7.48289 23.8794 8.08276 23.507 9.07271L17.9895 21.8531L12.6785 9.15024C12.1586 8.02202 11.7992 7.49142 10.7595 7.49142C10.0534 7.49142 9.5354 7.75151 8.9713 9.08803L5.81898 17.6917L0.581696 17.6862C0.578006 17.5553 0.576172 17.4245 0.576172 17.2936C0.576172 7.72952 8.32978 0 17.8937 0C27.4575 0 35.3937 7.68389 35.3937 17.2479Z" fill="#D8292F"/>
</svg>
