<svg width="169" height="27" viewBox="0 0 169 27" fill="none" xmlns="http://www.w3.org/2000/svg">
<path d="M159.928 11.791V15.2951H162.39V18.7716C162.397 19.0379 162.385 19.3221 162.348 19.5667L162.328 19.6855C162.324 19.7119 162.319 19.7392 162.313 19.767L162.293 19.8525C162.289 19.8671 162.285 19.8817 162.281 19.8965L162.252 19.9867C162.031 20.6269 161.364 21.4381 159.866 21.4381C158.27 21.4381 157.63 20.5069 157.454 19.8525L157.434 19.767L157.418 19.6855C157.374 19.4174 157.355 19.0823 157.355 18.7716V7.79086C157.355 7.4456 157.376 7.07134 157.439 6.76644L157.481 6.58116C157.484 6.56832 157.487 6.55528 157.491 6.54205L157.514 6.46045C157.518 6.4465 157.523 6.43239 157.527 6.41813L157.558 6.3309C157.786 5.72421 158.388 4.91617 159.853 4.91617C160.984 4.91617 161.592 5.37695 161.918 5.8532L161.976 5.94256C161.994 5.97234 162.011 6.00207 162.027 6.03164L162.073 6.11978L162.113 6.20632L162.147 6.29061L162.177 6.37201L162.202 6.44985L162.223 6.52349L162.241 6.59227L162.254 6.65555C162.261 6.68701 162.266 6.72042 162.272 6.75515L162.286 6.86271C162.288 6.88109 162.29 6.89965 162.292 6.91832L162.307 7.08698L162.317 7.24873L162.325 7.46928L162.328 7.58231V8.91569H168.378L168.379 8.08566L168.383 7.78881L168.382 7.5587L168.377 7.29077L168.372 7.14652L168.361 6.92169L168.346 6.69137L168.332 6.53739C167.923 2.48107 164.874 0.920434 161.164 0.648869L160.916 0.632662L160.666 0.620194C160.541 0.614882 160.414 0.610942 160.288 0.608331L160.034 0.604866C159.991 0.604436 159.949 0.604436 159.906 0.604436L159.651 0.606176C159.609 0.606758 159.566 0.607488 159.524 0.608366L159.271 0.615432L159.02 0.626147L158.771 0.640586L158.525 0.658829C158.443 0.665553 158.361 0.672923 158.28 0.680953L158.037 0.707034C157.997 0.711715 157.957 0.716564 157.917 0.721583L157.678 0.753747C157.124 0.83361 156.591 0.94738 156.085 1.09949L155.87 1.16704C153.526 1.9362 151.822 3.57151 151.472 6.53739L151.436 6.86661L151.411 7.12151L151.388 7.38876L151.369 7.65464C151.358 7.82838 151.351 7.99208 151.351 8.12745L151.352 18.3582L151.353 18.4852L151.359 18.6782L151.365 18.8135L151.373 18.958L151.384 19.1152L151.398 19.2883L151.424 19.5853L151.447 19.8132C151.787 23.5826 154.644 25.2593 158.139 25.655L158.384 25.6805C158.794 25.7196 159.212 25.7417 159.635 25.748L159.889 25.7498L160.145 25.748C160.57 25.7417 160.99 25.7196 161.401 25.6805L161.647 25.655C165.154 25.2593 167.993 23.5826 168.338 19.8132L168.366 19.4808L168.387 19.1995L168.405 18.8844L168.417 18.613L168.426 18.2287V11.791H159.928ZM118.207 1.25076H112.131V19.0249C112.14 19.3347 112.131 19.6827 112.077 19.9378L112.059 20.0151L112.037 20.0975C112.029 20.1257 112.02 20.1546 112.01 20.1841L111.979 20.2742C111.749 20.8853 111.166 21.6827 109.769 21.6827C108.458 21.6827 107.86 20.9631 107.61 20.3672L107.573 20.2742C107.567 20.259 107.562 20.2438 107.557 20.2288L107.528 20.1403L107.504 20.0557C107.501 20.042 107.498 20.0285 107.494 20.0151L107.478 19.9378C107.417 19.6827 107.409 19.3347 107.417 19.0249V1.25076H101.342V18.4733L101.341 18.6118L101.343 18.8539L101.352 19.2101L101.368 19.6431L101.38 19.8611L101.388 19.9767L101.396 20.0618C101.693 23.2482 103.563 24.9068 106.203 25.6008L106.428 25.6572C106.919 25.7744 107.435 25.8598 107.971 25.9168L108.22 25.9412L108.472 25.9615L108.727 25.978C108.854 25.9853 108.983 25.9912 109.113 25.9957L109.373 26.0028L109.636 26.0064C109.68 26.0068 109.724 26.0068 109.769 26.0068L110.033 26.0051C110.077 26.0045 110.121 26.0037 110.164 26.0028L110.425 25.9957C110.555 25.9912 110.684 25.9853 110.812 25.978L111.067 25.9615L111.319 25.9412L111.569 25.9168C115.123 25.5394 117.788 23.9214 118.156 20.0618L118.16 20.0235L118.17 19.9223L118.185 19.7207L118.198 19.4767L118.205 19.3003L118.213 19.0297L118.215 18.8539L118.214 18.6886L118.21 18.5398C118.209 18.5166 118.208 18.4945 118.207 18.4733V1.25076ZM62.3769 1.25076L59.3458 20.0316L56.3166 1.25076H46.5151L45.9953 25.2769H52L52.1626 3.03518L56.2941 25.2769H62.3865L66.5217 3.03518L66.6849 25.2769H72.7047L72.1673 1.25076H62.3769ZM26.0871 1.25076L21.6367 25.2769H28.1267L31.4804 3.03518L34.7537 25.2769H41.1986L36.7667 1.25076H26.0871ZM139.443 20.5946L133.785 1.25076H124.869V25.0264H130.767L130.424 5.06364L136.501 25.0264H145.052V1.25076H139.115L139.443 20.5946ZM84.8873 7.50364C84.7805 7.02915 84.8114 6.52505 84.8666 6.26158C84.8822 6.19166 84.9007 6.12116 84.9225 6.05077L84.9577 5.94536C85.1974 5.27929 85.7582 4.65363 87.044 4.65363C88.4317 4.65363 89.2452 5.51869 89.2452 6.8169V8.28602H95.1685V6.61143C95.1685 2.83237 92.6952 1.37865 90.0525 0.869139L89.8349 0.829359L89.6169 0.793661L89.3987 0.761874L89.1806 0.733829L88.9628 0.709354L88.7457 0.68828C88.6735 0.681803 88.6014 0.675864 88.5295 0.670435L88.3146 0.65565L88.1012 0.643754L87.8896 0.634577L87.68 0.627947L87.4728 0.623696L87.1671 0.621404L87.0323 0.621879L86.7644 0.625703C86.7199 0.626662 86.6755 0.627784 86.6312 0.629068L86.3667 0.638743C86.279 0.642628 86.1916 0.647177 86.1047 0.6524L85.8453 0.670101C82.2317 0.946525 79.4117 2.43087 78.8477 5.91173C78.6808 6.97177 78.6394 7.91272 78.905 9.11344C79.3232 11.0865 80.9668 12.4906 82.8536 13.6683L83.1457 13.8477C83.1946 13.8773 83.2437 13.9068 83.2929 13.9362L83.5892 14.1108L83.8874 14.2825L84.1866 14.4516L84.6356 14.701L85.8156 15.3477L86.1023 15.5066L86.384 15.6651L86.6601 15.8233L86.9297 15.9815C88.2156 16.7468 89.2459 17.5229 89.6166 18.4508C89.8218 19.002 89.777 19.697 89.6778 20.1403L89.6608 20.2118C89.6362 20.3183 89.6054 20.425 89.5667 20.5298L89.5252 20.634C89.2523 21.2716 88.6558 21.8151 87.3451 21.8151C85.8501 21.8151 84.9502 20.9556 84.9502 19.6602L84.9483 17.3544H78.5728V19.1872C78.5728 23.4891 81.3021 25.3578 84.7203 25.9126L84.9747 25.9513C85.1451 25.9756 85.3171 25.9966 85.4904 26.0147L85.7513 26.0396C86.0567 26.0661 86.3658 26.0836 86.6772 26.0928L86.9447 26.0987C86.9893 26.0993 87.034 26.0998 87.0788 26.1001L87.2131 26.1006C87.3025 26.1006 87.3916 26.1 87.4803 26.0987L87.7454 26.0929C87.7894 26.0916 87.8333 26.0901 87.8772 26.0885L88.139 26.0768C88.2258 26.0722 88.3123 26.067 88.3984 26.0611L88.6553 26.0413C88.8258 26.0267 88.9945 26.0094 89.1613 25.9892L89.41 25.9569L89.6558 25.9202C89.7372 25.9073 89.8181 25.8936 89.8985 25.8792L90.138 25.8338C93.0315 25.254 95.1844 23.682 95.6168 20.6594C95.6763 20.2086 95.7129 19.7923 95.7326 19.4117L95.7433 19.1633C95.7447 19.1228 95.7459 19.0827 95.7469 19.0431L95.7509 18.8107V18.5892L95.7472 18.3785L95.7403 18.1788L95.7307 17.9901C95.7288 17.9596 95.7269 17.9295 95.7249 17.8999L95.7117 17.728L95.6968 17.5673L95.6804 17.4179L95.654 17.2152L95.6267 17.0386L95.591 16.8438L95.5745 16.7642C95.1573 14.6719 93.3256 13.1941 91.2907 11.9777L90.9988 11.8056L90.7048 11.6369L90.4097 11.4713L89.9665 11.2282L89.3786 10.9128L88.3762 10.3796L87.9637 10.1564C87.9186 10.1317 87.8738 10.1071 87.8292 10.0825L87.5653 9.93528L87.3088 9.78865C86.0462 9.0566 85.0919 8.33782 84.8873 7.50364ZM6.75129 7.44471C6.64225 6.99063 6.6593 6.51295 6.71524 6.23538L6.73839 6.13145L6.76467 6.02862C6.96477 5.30716 7.51188 4.56354 8.92594 4.56354C10.3312 4.56354 11.1586 5.43693 11.1586 6.74563V8.23265H17.1513V6.54479C17.1513 2.93853 14.9079 1.42401 12.401 0.83157L12.1824 0.782349C11.9998 0.743221 11.816 0.708756 11.632 0.67851L11.411 0.644212L11.19 0.613793L10.9693 0.587082L10.7491 0.563908C10.6758 0.556754 10.6027 0.550161 10.5298 0.544101L10.3115 0.527489L10.0948 0.513901L9.87968 0.503168L9.6666 0.495117L9.45581 0.489578L9.14454 0.485352H9.04225C8.9524 0.485352 8.86291 0.485979 8.77377 0.487245L8.50749 0.492968C8.33073 0.498072 8.1555 0.505769 7.98197 0.516141L7.72296 0.533715C7.68001 0.536981 7.63717 0.540417 7.59444 0.544025L7.33945 0.56773C7.25492 0.576322 7.17086 0.585608 7.08729 0.595599L6.83808 0.627693C6.63166 0.656215 6.42843 0.689202 6.22869 0.726812L5.99069 0.774174L5.75616 0.826036L5.52521 0.882458C5.44883 0.902032 5.37307 0.922377 5.29795 0.943502L5.07451 1.00923C2.7488 1.72415 1.07276 3.22357 0.649676 5.82535C0.475062 6.90235 0.445137 7.84979 0.697494 9.06377C1.14178 11.1616 2.9538 12.6226 4.98102 13.8502L5.27909 14.0282C5.32898 14.0576 5.37896 14.0869 5.42902 14.1161L5.73019 14.2896L6.1837 14.5451L6.78742 14.8782L7.67792 15.3662L8.11052 15.607L8.53106 15.847L8.80339 16.0069C8.84819 16.0336 8.89268 16.0603 8.93684 16.087L9.19783 16.2476C10.3108 16.9447 11.1825 17.6627 11.5189 18.5045C11.7393 19.0519 11.6878 19.7466 11.5836 20.2044L11.5658 20.2784C11.5401 20.3838 11.5085 20.4892 11.4695 20.593L11.4279 20.6962C11.1479 21.345 10.5471 21.9015 9.21933 21.9015C7.71845 21.9015 6.8207 21.0272 6.8207 19.7138L6.81237 17.4019H0.365234V19.239C0.365234 24.3959 4.25329 26.0909 8.55916 26.2183L8.82879 26.2242L9.09932 26.2262L9.36682 26.2243C9.50006 26.2224 9.63251 26.219 9.76411 26.2142L10.0262 26.2027C10.1566 26.1959 10.2861 26.1876 10.4147 26.1778L10.6706 26.1562L10.9238 26.1305C11.0077 26.1213 11.0912 26.1113 11.1742 26.1007L11.4217 26.0666C11.5037 26.0545 11.5851 26.0417 11.6661 26.0282L11.9074 25.9855C14.9038 25.4244 17.137 23.8349 17.5866 20.7261C17.6485 20.2819 17.6873 19.871 17.7089 19.4945L17.7208 19.2486L17.7281 19.0129C17.7299 18.9361 17.7308 18.861 17.7312 18.7876L17.7304 18.5726L17.7262 18.3681L17.7189 18.1742L17.709 17.9909L17.6969 17.8183L17.683 17.6564L17.6595 17.434L17.6343 17.2362L17.6001 17.0113L17.5613 16.7932C17.1455 14.7257 15.3685 13.2549 13.3692 12.0451L13.0752 11.8699C13.0259 11.841 12.9766 11.8122 12.9272 11.7836L12.6299 11.6135L12.3314 11.4466L12.0325 11.2826L11.734 11.1213L10.4169 10.4222L9.99575 10.1964L9.72223 10.0473L9.45546 9.89895L9.19622 9.75119C9.15368 9.7266 9.1115 9.70202 9.06967 9.67745L8.82322 9.53011C7.73503 8.86725 6.93596 8.20405 6.75129 7.44471Z" fill="#1428A0"/>
</svg>
