<svg width="169" height="31" viewBox="0 0 169 31" fill="none" xmlns="http://www.w3.org/2000/svg">
<path d="M3.63468 24.237C2.37411 24.2397 1.20957 23.5639 0.586476 22.4681C-0.0276365 21.379 0.00918932 20.04 0.682231 18.9863L6.95951 9.12868C7.6136 8.0501 8.79742 7.40686 10.0582 7.44496C11.3182 7.47516 12.4642 8.18157 13.0572 9.2936C13.6424 10.4001 13.5693 11.7314 12.8684 12.7701L6.59511 22.6277C5.94855 23.6352 4.8318 24.2423 3.63468 24.237Z" fill="#F62B54"/>
<path d="M14.4037 24.2365C13.1376 24.2365 11.9726 23.5596 11.3608 22.4717C10.7481 21.3855 10.7849 20.0499 11.4566 18.9992L17.7219 9.16416C18.3666 8.07009 19.5539 7.41176 20.8233 7.44453C22.1 7.47246 23.2571 8.18664 23.8423 9.3038C24.4234 10.421 24.3383 11.7602 23.6162 12.7963L17.3522 22.6313C16.7077 23.6344 15.5961 24.2396 14.4037 24.2365Z" fill="#FFCC00"/>
<path d="M24.927 24.323C26.7119 24.323 28.1588 22.9065 28.1588 21.1591C28.1588 19.4117 26.7119 17.9951 24.927 17.9951C23.1422 17.9951 21.6953 19.4117 21.6953 21.1591C21.6953 22.9065 23.1422 24.323 24.927 24.323Z" fill="#00CA72"/>
<path d="M165.327 18.1777C166.303 18.1777 166.887 18.872 166.887 20.0091V23.9059H168.213V19.92C168.213 17.9862 167.302 16.8651 165.589 16.8651C164.919 16.8651 163.855 17.0486 163.221 18.2815C162.92 17.5406 162.237 17.0246 161.442 16.9382C161.197 16.8933 160.947 16.8785 160.698 16.8943C160.152 16.9382 159.182 17.2774 158.818 18.0461V17.0127H157.491V23.9059H158.818V20.186C158.818 18.739 159.765 18.1777 160.714 18.1777C161.602 18.1777 162.186 18.8574 162.186 19.9945V23.9059H163.505V20.186C163.505 19.0342 164.197 18.1644 165.327 18.1777ZM152.62 22.7541C153.226 22.7674 153.811 22.5254 154.235 22.0865C154.661 21.6476 154.887 21.0504 154.865 20.4373C154.865 19.0489 153.843 18.1777 152.62 18.1777C151.395 18.1777 150.375 19.0489 150.375 20.4373C150.351 21.0491 150.577 21.6449 151 22.0825C151.423 22.5214 152.005 22.7648 152.609 22.7541H152.62ZM152.62 24.0468C150.681 24.0468 149.062 22.6145 149.062 20.4294C149.062 18.2442 150.681 16.8571 152.62 16.8571C154.559 16.8571 156.191 18.2442 156.191 20.4294C156.191 22.6145 154.549 24.0535 152.61 24.0535L152.62 24.0468ZM142.233 20.4294L142.22 20.4373C142.22 18.2522 143.881 16.8651 145.833 16.8571C146.825 16.8379 147.778 17.24 148.457 17.9636L147.452 18.8201C147.02 18.3965 146.437 18.1629 145.833 18.1711C144.609 18.1711 143.546 19.0422 143.546 20.4294C143.546 21.367 144.103 22.2115 144.958 22.5706C145.813 22.9297 146.797 22.7302 147.452 22.0679L148.472 22.9243C147.791 23.6554 146.832 24.0634 145.833 24.0468C143.895 24.0468 142.233 22.6145 142.233 20.4294ZM137.986 22.5825C137.984 22.3392 138.078 22.1046 138.248 21.9305C138.418 21.7564 138.65 21.657 138.893 21.6542C139.137 21.657 139.369 21.7564 139.539 21.9305C139.709 22.1046 139.803 22.3392 139.8 22.5825C139.776 23.067 139.378 23.4487 138.893 23.4537C138.408 23.4487 138.011 23.067 137.986 22.5825Z" fill="#333333"/>
<path d="M141.614 8.24774H136.891L133.581 16.782L130.288 8.24774H125.565L131.307 21.7335L127.736 30.6495H132.424L141.614 8.24774ZM112.892 15.7487C112.892 17.9032 114.776 19.3209 116.626 19.3209C118.444 19.3209 120.23 18.0016 120.23 15.7473C120.23 13.4931 118.444 12.1724 116.626 12.1724C114.776 12.1724 112.892 13.5915 112.892 15.7473V15.7487ZM120.23 23.2789V21.5725C119.272 23.0222 117.038 23.5701 115.891 23.5701C112.096 23.5701 108.299 20.5777 108.299 15.7473C108.299 10.9183 112.095 7.92589 115.891 7.92589C116.848 7.92589 119.082 8.24508 120.23 9.92082V8.25306H124.632V23.2815L120.23 23.2802V23.2789ZM107.046 23.2789H102.644V21.4116C101.909 22.7948 100.125 23.6007 98.2739 23.6007C94.445 23.6007 91.063 20.5431 91.063 15.8085C91.063 10.9848 94.445 7.92323 98.2739 7.92323C100.122 7.92323 101.911 8.6946 102.644 10.0791V0.0605469H107.046V23.2789ZM102.548 15.7141C102.548 13.4612 100.922 12.1405 99.1037 12.1405C97.2205 12.1405 95.6565 13.5569 95.6565 15.7141C95.6565 17.9404 97.2205 19.3502 99.1024 19.3502C100.955 19.3528 102.548 17.8713 102.548 15.7141ZM80.1788 15.3257C80.1788 13.0409 81.3598 12.2682 82.9224 12.2682C84.4213 12.2682 85.5065 13.2656 85.5065 15.2606V23.2762H89.9405V14.2964C89.9405 10.0166 87.8339 7.92323 84.4838 7.92323C82.7296 7.92323 80.9754 8.92069 80.1775 10.4342V8.24774H75.7461V23.2762H80.1788V15.3257ZM66.7425 23.5342C62.5319 23.5342 59.0196 20.4447 59.0196 15.7128C59.0196 10.9781 62.5279 7.91924 66.7425 7.91924C70.9571 7.91924 74.496 10.9781 74.496 15.7128C74.496 20.4474 70.9531 23.5355 66.7425 23.5355V23.5342ZM66.7425 19.1587C68.5911 19.1587 70.1245 17.8048 70.1245 15.7141C70.1245 13.6859 68.5924 12.3014 66.7425 12.3014C65.8423 12.2873 64.9758 12.6437 64.346 13.2869C63.7126 13.9335 63.3685 14.8093 63.3924 15.7141C63.3937 17.8074 64.9245 19.1587 66.7425 19.1587ZM51.0706 12.2695C52.3779 12.2695 53.527 13.3002 53.527 15.2619V23.2789H57.929V14.7432C57.929 10.2054 55.7227 7.92057 52.1864 7.92057C51.1357 7.92057 49.1568 8.23976 47.7205 10.5911C46.8906 8.85286 45.296 7.95116 42.9394 7.95116C41.2683 7.94266 39.7466 8.91207 39.048 10.4302V8.24907H34.6113V23.2775H39.044V15.3257C39.044 13.0409 40.2888 12.2682 41.6281 12.2682C42.9048 12.2682 44.0512 13.2656 44.0844 15.1648V23.2775H48.5184V15.3257C48.5184 13.1406 49.6675 12.2708 51.0706 12.2708V12.2695Z" fill="#333333"/>
</svg>
