<svg width="169" height="35" viewBox="0 0 169 35" fill="none" xmlns="http://www.w3.org/2000/svg">
<path d="M31.264 18.5818L31.2862 18.5836L33.6092 18.8264C33.7723 18.844 33.922 18.9236 34.0279 19.048L34.0451 19.0692L34.023 19.0801C34.1316 19.2172 34.1795 19.3925 34.1554 19.5657C33.6479 23.6007 31.7355 27.328 28.7538 30.0935C25.6599 32.963 21.5961 34.5573 17.3764 34.5573C15.3269 34.5606 13.2948 34.1833 11.3836 33.4447L11.2795 33.4041C11.123 33.3463 10.9974 33.2273 10.9308 33.0753L10.9208 33.051C10.8556 32.8996 10.852 32.7292 10.9099 32.5757L11.8269 30.3387C11.9511 30.0224 12.3032 29.8631 12.6212 29.9752L12.6423 29.9831C17.329 31.7928 22.6372 30.7735 26.3205 27.3567C28.6649 25.2025 30.1766 22.2922 30.591 19.1353C30.6349 18.8093 30.9177 18.5722 31.2418 18.5808L31.264 18.5818ZM86.1257 9.08767C88.1065 9.08767 89.6555 9.692 90.6447 10.8526L90.6779 10.8919V9.90979C90.6911 9.63565 90.9034 9.41409 91.1744 9.38733L91.1965 9.38559H93.8394C94.1113 9.40439 94.3276 9.61843 94.3511 9.88783L94.3526 9.90979V24.5814C94.438 26.6501 93.8022 28.6844 92.5538 30.3363C91.1302 32.0688 88.9674 32.9461 86.1257 32.9461C82.1752 32.9461 79.0577 30.4466 78.5446 26.8766C78.5191 26.6189 78.6761 26.3793 78.9201 26.2985L78.9419 26.2917L81.5241 25.6848C81.5376 25.6818 81.5511 25.6793 81.5647 25.6773C81.8482 25.6357 82.1115 25.8318 82.1531 26.1152C82.3889 28.1178 84.1101 29.6117 86.1257 29.5638C89.1793 29.5638 90.6159 28.0117 90.6443 24.7684L90.6447 24.6696V23.384C89.5001 24.6678 87.8448 25.3772 86.1257 25.3207C81.7337 25.3207 78.5502 21.9108 78.5502 17.2207C78.5099 15.1105 79.2529 13.0602 80.6358 11.4657C82.0403 9.92267 84.0395 9.05673 86.1257 9.08767ZM6.58462 26.9318L6.61736 26.9315L6.65023 26.9318C7.70448 26.9439 8.55332 27.7963 8.56477 28.8467L8.56486 28.8796C8.56486 28.8905 8.56473 28.9015 8.56454 28.9124C8.54618 29.9879 7.65953 30.8451 6.58399 30.8268C5.50844 30.8084 4.65141 29.9218 4.66958 28.8462C4.68757 27.7926 5.53876 26.9486 6.58462 26.9318ZM131.875 8.88353L132.011 8.88453C136.732 8.94973 139.658 12.2362 139.658 17.4966C139.658 17.7749 139.642 18.053 139.613 18.3297C139.589 18.5842 139.381 18.7805 139.128 18.7926L139.106 18.7932H127.883C127.952 21.1503 129.9 23.0154 132.259 22.9811C134.086 23.096 135.752 21.9338 136.275 20.1782C136.371 19.9262 136.643 19.7906 136.9 19.8629L136.921 19.8692L139.161 20.6582C139.285 20.698 139.386 20.7858 139.443 20.9012L139.453 20.9231C139.515 21.0446 139.525 21.1858 139.482 21.3148C138.441 24.3956 135.509 26.434 132.259 26.3359C130.128 26.3571 128.077 25.5246 126.565 24.024C124.913 22.2869 124.032 19.9577 124.12 17.5628C124.12 12.1823 127.987 8.94865 131.763 8.88451L131.875 8.88353ZM68.3701 8.88354H68.3756C73.1815 8.88354 76.1665 12.1831 76.1665 17.4966C76.1662 17.7749 76.1514 18.053 76.1224 18.3297C76.1001 18.5856 75.8905 18.7833 75.636 18.7928L75.6147 18.7932H64.3919C64.4611 21.1569 66.4197 23.0246 68.7839 22.9812C70.6128 23.0981 72.2794 21.9351 72.8008 20.1782C72.8942 19.9242 73.168 19.7877 73.4255 19.8627L73.4463 19.8692L75.6865 20.6582C75.8174 20.7005 75.9239 20.797 75.9789 20.9231C76.0313 21.0484 76.0313 21.1895 75.9789 21.3148C74.9392 24.3936 72.01 26.4315 68.7619 26.3359C66.6274 26.3601 64.5722 25.5274 63.0566 24.024C61.4079 22.2855 60.5271 19.9573 60.6123 17.5628C60.6123 12.1279 64.5575 8.88354 68.3701 8.88354ZM51.3759 8.87795C53.5332 8.87795 55.2768 9.40215 56.568 10.4339C57.441 11.1297 58.088 12.0686 58.4274 13.1321L58.4284 13.1364C58.4727 13.3197 58.365 13.5044 58.1862 13.5576L58.1681 13.5624L55.492 14.4453C55.3733 14.4924 55.2411 14.4924 55.1224 14.4453C55.021 14.398 54.9447 14.3096 54.9127 14.2026L54.8984 14.1499C54.6547 13.2786 53.8578 11.8796 51.3759 11.8796C49.6103 11.8796 48.5509 12.8949 48.5509 13.877L48.5513 13.9159C48.5646 14.5546 48.9118 15.3562 50.4346 15.661L50.4821 15.6702L53.4285 16.222C56.684 16.8775 58.5606 18.647 58.5978 21.113L58.5984 21.1879L58.5874 21.1439L58.5867 21.2187C58.5393 23.6906 56.1483 26.2917 51.7456 26.2917C46.5866 26.2917 44.5617 23.3729 44.1865 21.6515C44.162 21.4714 44.2718 21.3012 44.4437 21.2483L44.4623 21.2431L47.2212 20.3824C47.2705 20.3743 47.3208 20.3743 47.3701 20.3824C47.4403 20.3811 47.5096 20.396 47.5729 20.4257L47.5963 20.4375C47.6977 20.4861 47.7724 20.577 47.8004 20.6858C48.1481 22.3412 49.6434 23.3288 51.7952 23.3288C53.7981 23.3288 54.7085 22.2804 54.7085 21.3314C54.7085 20.3928 53.9151 19.697 52.5473 19.4096L52.5015 19.4002L49.4061 18.7988C46.5204 18.2525 44.7217 16.4592 44.7217 14.1253C44.7217 11.2837 47.7729 8.87795 51.3759 8.87795ZM162.655 4.28176H165.067C165.351 4.29884 165.574 4.52959 165.585 4.81221L165.585 4.8335V9.36354H168.487C168.769 9.38338 168.989 9.61311 169 9.89361L169.001 9.91528V12.321L169 12.3419C168.992 12.6117 168.778 12.8307 168.508 12.8445L168.487 12.8452H165.585V20.8955C165.585 22.2307 166.114 22.7826 167.477 22.7826C167.753 22.7778 168.029 22.7568 168.302 22.7199L168.404 22.7052C168.555 22.6798 168.708 22.7223 168.824 22.8212C168.928 22.9178 168.99 23.0507 168.999 23.1919L169.001 23.2185V25.4862C169.002 25.7173 168.852 25.922 168.631 25.9883C167.995 26.1662 167.339 26.2555 166.679 26.2539L166.589 26.2531C163.71 26.2531 161.913 24.4198 161.878 21.4547L161.877 21.3645V12.8783H159.367C159.093 12.8622 158.873 12.6474 158.849 12.3762L158.848 12.3541V9.93733C158.847 9.65222 159.064 9.41494 159.345 9.38727L159.367 9.38559L160.042 9.38551L160.113 9.38423C160.901 9.3616 162.111 9.04227 162.136 7.28354L162.137 7.22813V4.8335C162.136 4.54839 162.353 4.3111 162.634 4.28344L162.655 4.28176ZM115.791 8.88108L115.855 8.88354H115.849C118.69 8.88354 121.557 10.8627 121.614 15.1853L121.615 15.317V25.5359C121.602 25.81 121.389 26.0315 121.119 26.0583L121.096 26.0601H118.453C118.18 26.0439 117.961 25.8292 117.936 25.558L117.935 25.5359V15.6482L117.934 15.572C117.918 14.3122 117.49 12.2879 114.895 12.2879C112.977 12.2879 111.611 13.7805 111.584 15.9518L111.584 16.0178V25.5359C111.571 25.81 111.359 26.0315 111.087 26.0583L111.065 26.0601H108.39C108.115 26.0439 107.896 25.8292 107.872 25.558L107.871 25.5359V15.6482L107.87 15.572C107.854 14.3122 107.426 12.2879 104.83 12.2879C102.837 12.2879 101.487 13.7696 101.46 15.9836L101.459 16.051V25.5359C101.446 25.81 101.233 26.0315 100.963 26.0583L100.941 26.0601H98.2975C98.0257 26.0413 97.8095 25.8272 97.7861 25.5578L97.7846 25.5359V9.87667C97.7975 9.60447 98.0069 9.38367 98.2756 9.35442L98.2975 9.35247H100.841C101.115 9.3686 101.335 9.58337 101.358 9.85456L101.36 9.87667V10.8202C102.504 9.56569 104.131 8.86083 105.829 8.88354C107.795 8.8259 109.63 9.8656 110.591 11.5816C111.735 9.83366 113.707 8.81109 115.791 8.88108ZM155.366 10.8312C156.379 12.1652 156.901 13.8059 156.847 15.4781L156.844 15.5488V25.5359C156.832 25.8081 156.622 26.0289 156.353 26.0581L156.332 26.0601H153.656C153.382 26.0439 153.163 25.8292 153.138 25.558L153.137 25.5359V16.0841C153.137 13.6121 151.973 12.3541 149.766 12.3541C148.791 12.3226 147.859 12.7569 147.255 13.5238C146.671 14.3657 146.37 15.3704 146.393 16.3935L146.395 16.4537V25.5359C146.381 25.81 146.169 26.0315 145.898 26.0583L145.876 26.0601H143.205C142.932 26.0439 142.712 25.8292 142.688 25.558L142.687 25.5359V9.8656C142.7 9.59146 142.913 9.36999 143.183 9.34314L143.205 9.3414H145.816C146.087 9.3602 146.304 9.57432 146.327 9.84364L146.328 9.8656V10.9692C147.448 9.61282 149.128 8.84426 150.886 8.88354C152.599 8.81029 154.251 9.5285 155.366 10.8312ZM1.5795 19.2512H20.5767C20.9258 19.2542 21.2078 19.5337 21.2165 19.8801L21.2168 19.9023V22.2805C21.2197 22.6296 20.9449 22.9163 20.5988 22.931L20.5766 22.9315H1.5795C1.23034 22.9286 0.948415 22.6489 0.939453 22.3026V22.2804V19.9023V19.8801C0.948228 19.5413 1.2183 19.2664 1.55684 19.2518L1.5795 19.2512ZM86.5838 12.3872C83.9795 12.3872 82.3242 14.2412 82.3242 17.2207C82.3242 20.2003 83.9573 22.0486 86.5838 22.0486C89.0887 22.0486 90.7771 20.1065 90.7771 17.2207C90.7771 14.3294 89.0887 12.3872 86.5838 12.3872ZM64.5094 15.611L64.5023 15.6702H72.3538C72.1627 13.5727 70.6844 12.2646 68.4705 12.2387L68.4032 12.2383C66.4524 12.2065 64.7912 13.6334 64.5173 15.5527L64.5094 15.611ZM128.022 15.611L128.015 15.6702H135.867C135.676 13.5727 134.198 12.2646 131.984 12.2387L131.916 12.2383C129.966 12.2065 128.304 13.6334 128.03 15.5527L128.022 15.611ZM22.9547 1.10353C23.1192 1.16287 23.2525 1.28627 23.3244 1.44564C23.3903 1.60653 23.3903 1.78691 23.3244 1.9477L22.4968 4.15485C22.3821 4.48211 22.0242 4.65482 21.6967 4.54107C17.3608 3.02799 12.5497 3.88769 9.00621 6.80879C6.79787 8.65726 5.22983 11.1562 4.52592 13.9487C4.45305 14.2307 4.19914 14.4279 3.90795 14.4288H3.76448L1.49121 13.8825C1.32171 13.8427 1.17616 13.7349 1.08844 13.5845H1.07736C0.985376 13.4342 0.959445 13.2526 1.00572 13.0824C1.90846 9.50777 3.92839 6.31449 6.77156 3.96718C11.2925 0.24516 17.4311 -0.841097 22.9547 1.10353ZM14.5404 10.6381H33.5375C33.878 10.6409 34.1562 10.9072 34.1765 11.2445L34.1775 11.2671V13.6453C34.1805 13.9944 33.9059 14.2812 33.5597 14.2958L33.5375 14.2964H14.5404C14.1935 14.2904 13.9148 14.0119 13.906 13.6678L13.9058 13.6453V11.2891C13.9028 10.9423 14.174 10.6566 14.5179 10.6389L14.5404 10.6381ZM27.7281 3.38229L27.7608 3.38203L27.7937 3.38232C28.8479 3.3944 29.6968 4.24687 29.7082 5.29718L29.7083 5.33007C29.7083 5.34104 29.7082 5.35202 29.708 5.36291C29.6897 6.43847 28.803 7.29551 27.7274 7.27725C26.6519 7.25898 25.7949 6.37222 25.8131 5.29675C25.831 4.24305 26.6823 3.39913 27.7281 3.38229Z" fill="#4FB58B"/>
</svg>
