<svg width="100" height="101" viewBox="0 0 100 101" fill="none" xmlns="http://www.w3.org/2000/svg">
<circle cx="50" cy="50.3105" r="50" fill="#56A08F"/>
<path opacity="0.4" d="M53.6462 45.2143V41.0063C52.8201 41.0063 52.1351 40.3408 52.1351 39.5384V34.5279C52.1351 33.8605 51.5911 33.334 50.906 33.334H37.0641C32.7121 33.334 29.166 36.7767 29.166 41.0063V46.0735C29.166 46.4669 29.3272 46.8388 29.6093 47.1128C29.8914 47.3848 30.2742 47.5414 30.6771 47.5414C32.2084 47.5414 33.377 48.5983 33.377 49.9879C33.377 51.4382 32.1883 52.593 30.6973 52.6106C29.8712 52.6106 29.166 53.1782 29.166 54.0002V59.0127C29.166 63.2402 32.7121 66.6654 37.044 66.6654H50.906C51.5911 66.6654 52.1351 66.135 52.1351 65.4715V61.2419C52.1351 60.4218 52.8201 59.774 53.6462 59.774V55.979C52.8201 55.979 52.1351 55.3116 52.1351 54.5111V46.6822C52.1351 45.8797 52.8201 45.2143 53.6462 45.2143Z" fill="white"/>
<path d="M66.62 49.9899C66.62 51.4382 67.8289 52.593 69.2998 52.6126C70.1258 52.6126 70.831 53.1801 70.831 53.9826V59.0127C70.831 63.2422 67.3051 66.6673 62.953 66.6673H56.3847C55.7198 66.6673 55.1557 66.1369 55.1557 65.4715V61.2439C55.1557 60.4218 54.4908 59.776 53.6445 59.776V55.9809C54.4908 55.9809 55.1557 55.3135 55.1557 54.513V46.6842C55.1557 45.8797 54.4908 45.2162 53.6445 45.2162V41.0063C54.4908 41.0063 55.1557 40.3408 55.1557 39.5384V34.5298C55.1557 33.8624 55.7198 33.334 56.3847 33.334H62.953C67.3051 33.334 70.831 36.7591 70.831 40.9867V45.9189C70.831 46.3103 70.6698 46.6842 70.3878 46.9562C70.1057 47.2302 69.7229 47.3868 69.3199 47.3868C67.8289 47.3868 66.62 48.5631 66.62 49.9899Z" fill="white"/>
</svg>
