<svg width="100" height="101" viewBox="0 0 100 101" fill="none" xmlns="http://www.w3.org/2000/svg">
<circle cx="50" cy="50.3105" r="50" fill="#56A08F"/>
<path d="M44.4771 55.9531C36.2192 55.9531 29.166 57.2288 29.166 62.3274C29.166 67.4299 36.1743 68.7495 44.4771 68.7495C52.7351 68.7495 59.7882 67.4739 59.7882 62.3753C59.7882 57.2727 52.7799 55.9531 44.4771 55.9531Z" fill="white"/>
<path opacity="0.4" d="M44.477 51.0934C50.1012 51.0934 54.6083 46.6795 54.6083 41.1717C54.6083 35.6639 50.1012 31.25 44.477 31.25C38.8548 31.25 34.3457 35.6639 34.3457 41.1717C34.3457 46.6795 38.8548 51.0934 44.477 51.0934Z" fill="white"/>
<path opacity="0.4" d="M58.6951 41.3526C58.6951 44.1574 57.8349 46.7746 56.3264 48.9486C56.1694 49.1722 56.308 49.4736 56.5812 49.5215C56.9604 49.5834 57.3497 49.6214 57.7472 49.6293C61.7019 49.7312 65.2509 47.2378 66.2314 43.4827C67.6849 37.911 63.4203 32.9082 57.9878 32.9082C57.3986 32.9082 56.834 32.9681 56.2836 33.0779C56.2082 33.0939 56.1266 33.1298 56.0858 33.1937C56.0328 33.2755 56.0716 33.3813 56.1246 33.4512C57.7574 35.6931 58.6951 38.422 58.6951 41.3526Z" fill="white"/>
<path d="M70.3724 56.6038C69.6488 55.0926 67.9018 54.0565 65.2436 53.5474C63.9899 53.248 60.5938 52.8228 57.4362 52.8827C57.3893 52.8886 57.3628 52.9206 57.3587 52.9405C57.3526 52.9725 57.3669 53.0204 57.428 53.0543C58.8876 53.761 64.5281 56.8354 63.8187 63.3194C63.7881 63.6029 64.0185 63.8424 64.3059 63.8025C65.6941 63.6089 69.2655 62.8562 70.3724 60.5166C70.986 59.2788 70.986 57.8415 70.3724 56.6038Z" fill="white"/>
</svg>
