<svg width="100" height="101" viewBox="0 0 100 101" fill="none" xmlns="http://www.w3.org/2000/svg">
<circle cx="50" cy="50.3105" r="50" fill="#56A08F"/>
<path opacity="0.4" d="M64.1844 43.7931C63.2437 43.7931 61.9978 43.7723 60.4465 43.7723C56.6633 43.7723 53.5526 40.641 53.5526 36.8223V30.1223C53.5526 29.5952 53.1318 29.166 52.6099 29.166H41.5902C36.4476 29.166 32.291 33.3868 32.291 38.5598V61.0077C32.291 66.4348 36.6456 70.8327 42.0193 70.8327H58.4291C63.5532 70.8327 67.7077 66.6389 67.7077 61.4619V44.7306C67.7077 44.2014 67.2889 43.7744 66.765 43.7764C65.8841 43.7827 64.828 43.7931 64.1844 43.7931Z" fill="white"/>
<path opacity="0.4" d="M58.5073 30.3482C57.8844 29.7003 56.7969 30.1461 56.7969 31.044V36.5378C56.7969 38.8419 58.6948 40.7378 60.999 40.7378C62.451 40.7544 64.4677 40.7586 66.1802 40.7544C67.0573 40.7524 67.5031 39.7044 66.8948 39.0711C64.6969 36.7857 60.7615 32.6899 58.5073 30.3482Z" fill="white"/>
<path fill-rule="evenodd" clip-rule="evenodd" d="M43.6945 48.7232H50.7466C51.6029 48.7232 52.2987 48.0294 52.2987 47.1732C52.2987 46.3169 51.6029 45.6211 50.7466 45.6211H43.6945C42.8383 45.6211 42.1445 46.3169 42.1445 47.1732C42.1445 48.0294 42.8383 48.7232 43.6945 48.7232ZM43.6945 59.1276H55.0362C55.8924 59.1276 56.5883 58.4339 56.5883 57.5776C56.5883 56.7214 55.8924 56.0256 55.0362 56.0256H43.6945C42.8383 56.0256 42.1445 56.7214 42.1445 57.5776C42.1445 58.4339 42.8383 59.1276 43.6945 59.1276Z" fill="white"/>
</svg>
