<svg width="100" height="101" viewBox="0 0 100 101" fill="none" xmlns="http://www.w3.org/2000/svg">
<circle cx="50" cy="50.3105" r="50" fill="#56A08F"/>
<path opacity="0.4" d="M61.5695 40.2002C66.6758 40.2002 70.832 44.4914 70.832 49.7657V60.2496C70.832 65.511 66.6862 69.7915 61.5904 69.7915H38.432C33.3237 69.7915 29.1654 65.5024 29.1654 60.2281L29.1654 49.7442C29.1654 44.4828 33.3133 40.2002 38.4112 40.2002H40.3695L61.5695 40.2002Z" fill="white"/>
<path d="M51.1374 58.4119L57.1978 52.2288C57.8228 51.5897 57.8228 50.5613 57.1936 49.9244C56.5645 49.2895 55.5499 49.2917 54.9249 49.9286L51.6061 53.3143L51.6061 31.8384C51.6061 30.939 50.8874 30.209 49.9999 30.209C49.1145 30.209 48.3978 30.939 48.3978 31.8384V53.3143L45.077 49.9286C44.452 49.2917 43.4374 49.2895 42.8082 49.9244C42.4936 50.2439 42.3353 50.6607 42.3353 51.0797C42.3353 51.4945 42.4936 51.9113 42.804 52.2288L48.8645 58.4119C49.1665 58.7187 49.5749 58.8922 49.9999 58.8922C50.427 58.8922 50.8353 58.7187 51.1374 58.4119Z" fill="white"/>
</svg>
